<svg width="5" height="6" viewBox="0 0 20 20" fill="none" xmlns="http://www.w3.org/2000/svg">
<path d="M1.6665 10.17C1.6665 8.26299 1.6665 7.30948 2.09917 6.51903C2.53184 5.72859 3.32229 5.23801 4.9032 4.25685L6.56986 3.22247C8.24099 2.18532 9.07656 1.66675 9.99984 1.66675C10.9231 1.66675 11.7587 2.18532 13.4298 3.22247L15.0965 4.25685C16.6774 5.23801 17.4678 5.72859 17.9005 6.51903C18.3332 7.30948 18.3332 8.26299 18.3332 10.17V11.4375C18.3332 14.6883 18.3332 16.3137 17.3569 17.3235C16.3805 18.3334 14.8092 18.3334 11.6665 18.3334H8.33317C5.19047 18.3334 3.61913 18.3334 2.64281 17.3235C1.6665 16.3137 1.6665 14.6883 1.6665 11.4375V10.17Z" stroke="#565D6A" stroke-width="1.25"/>
<path opacity="0.5" d="M12.5 15H7.5" stroke="#565D6A" stroke-width="1.25" stroke-linecap="round"/>
</svg>
